<svg width="14" height="14" viewBox="0 0 14 14" fill="none" xmlns="http://www.w3.org/2000/svg">
<path d="M3.78784 2.73297C3.78769 3.02253 3.67253 3.30017 3.46767 3.50482C3.26282 3.70947 2.98506 3.82436 2.6955 3.82422C2.40594 3.82407 2.12829 3.7089 1.92364 3.50405C1.71899 3.2992 1.6041 3.02144 1.60425 2.73187C1.60439 2.44231 1.71956 2.16467 1.92441 1.96002C2.12927 1.75537 2.40703 1.64048 2.69659 1.64063C2.98615 1.64077 3.2638 1.75594 3.46845 1.96079C3.67309 2.16564 3.78798 2.4434 3.78784 2.73297ZM3.82059 4.63269H1.637V11.4673H3.82059V4.63269ZM7.27067 4.63269H5.09799V11.4673H7.24883V7.88078C7.24883 5.8828 9.85276 5.69719 9.85276 7.88078V11.4673H12.0091V7.13836C12.0091 3.77017 8.15502 3.89573 7.24883 5.5498L7.27067 4.63269Z" fill="black"/>
</svg>
