<svg width="186" height="54" viewBox="0 0 186 54" fill="none" xmlns="http://www.w3.org/2000/svg">
<path d="M85.1396 24.0801C86.2135 24.0801 87.092 24.256 87.7754 24.6074C88.4587 24.9589 89.006 25.3683 89.416 25.8369C89.8456 26.3055 90.1475 26.7843 90.3232 27.2725C90.5185 27.7606 90.6553 28.1417 90.7334 28.415L87.4824 29.8496C87.4238 29.6153 87.3359 29.3612 87.2188 29.0879C87.1212 28.8149 86.985 28.571 86.8096 28.3564C86.6339 28.1222 86.409 27.9267 86.1357 27.7705C85.8819 27.6143 85.5497 27.5361 85.1396 27.5361C84.5735 27.5362 84.1444 27.7218 83.8516 28.0928C83.5783 28.4442 83.4415 28.844 83.4414 29.293C83.4414 29.6835 83.5196 30.0157 83.6758 30.2891C83.832 30.5623 84.0461 30.8166 84.3193 31.0508C84.6122 31.285 84.9543 31.5089 85.3447 31.7236C85.7548 31.9384 86.2043 32.1632 86.6924 32.3975C87.0438 32.5732 87.4059 32.7716 87.7793 32.9912L88.3447 33.3311C88.7805 33.6044 89.1866 33.938 89.5625 34.3311C90.0114 34.78 90.3722 35.3266 90.6455 35.9707C90.9383 36.615 91.0849 37.3959 91.085 38.3135C91.085 39.1726 90.9384 39.9641 90.6455 40.6865C90.3722 41.4087 89.9821 42.0335 89.4746 42.5605C88.967 43.0682 88.3416 43.4688 87.5996 43.7617C86.8773 44.0545 86.0669 44.2002 85.1689 44.2002C83.8804 44.2002 82.8357 43.9862 82.0352 43.5566C81.2542 43.1271 80.6297 42.6287 80.1611 42.0625C79.7121 41.4964 79.3994 40.9206 79.2236 40.335C79.0284 39.7492 78.9013 39.2997 78.8428 38.9873L82.2695 37.8154C82.3281 38.1668 82.4161 38.5187 82.5332 38.8701C82.6699 39.202 82.8458 39.505 83.0605 39.7783C83.2753 40.0516 83.5392 40.2765 83.8516 40.4521C84.1638 40.6082 84.5346 40.6865 84.9639 40.6865C85.3348 40.6865 85.6475 40.6279 85.9014 40.5107C86.1747 40.3741 86.3995 40.2177 86.5752 40.042C86.7509 39.8468 86.878 39.6415 86.9561 39.4268C87.0341 39.1925 87.0732 38.9677 87.0732 38.7529C87.0732 38.3628 86.9948 38.031 86.8389 37.7578C86.7022 37.465 86.5066 37.2108 86.2529 36.9961C86.0186 36.7813 85.745 36.5859 85.4326 36.4102C85.1202 36.2344 84.8075 36.0585 84.4951 35.8828C83.6753 35.4729 82.9626 35.0633 82.3574 34.6533C81.7523 34.2238 81.2547 33.7644 80.8643 33.2764C80.4738 32.7687 80.1806 32.2117 79.9854 31.6064C79.7902 31.0012 79.6924 30.2886 79.6924 29.4688C79.6924 28.7659 79.8097 28.0925 80.0439 27.4482C80.2978 26.7844 80.6486 26.2079 81.0977 25.7197C81.5663 25.2121 82.133 24.8124 82.7969 24.5195C83.4802 24.2267 84.2611 24.0801 85.1396 24.0801ZM106.026 24.0508C107.022 24.0508 107.852 24.256 108.516 24.666C109.199 25.0564 109.755 25.5737 110.185 26.2178C110.614 26.8426 110.927 27.5461 111.122 28.3271C111.337 29.108 111.483 29.8793 111.562 30.6406L108.135 31.2852C108.096 30.8556 108.037 30.4256 107.959 29.9961C107.881 29.547 107.764 29.1464 107.607 28.7949C107.471 28.4241 107.285 28.1317 107.051 27.917C106.836 27.6828 106.553 27.5655 106.202 27.5654C105.343 27.5654 104.776 28.1411 104.503 29.293C104.23 30.445 104.093 32.0563 104.093 34.126C104.093 36.2735 104.22 37.9037 104.474 39.0166C104.727 40.1295 105.294 40.6865 106.173 40.6865C106.524 40.6864 106.817 40.5788 107.051 40.3643C107.285 40.13 107.461 39.827 107.578 39.4561C107.715 39.0656 107.813 38.6161 107.871 38.1084C107.93 37.6009 107.959 37.0641 107.959 36.498H106.144V33.5693H111.474V43.8789H109.716L109.248 41.5645C109.131 41.7792 108.984 42.0334 108.809 42.3262C108.633 42.619 108.398 42.9024 108.105 43.1758C107.832 43.4491 107.49 43.6837 107.08 43.8789C106.67 44.074 106.172 44.1709 105.587 44.1709C104.708 44.1709 103.918 43.9469 103.215 43.498C102.512 43.0294 101.916 42.365 101.428 41.5059C100.94 40.6468 100.568 39.5923 100.314 38.3428C100.061 37.0933 99.9346 35.6877 99.9346 34.126C99.9346 32.8764 100.031 31.646 100.227 30.4355C100.441 29.225 100.783 28.151 101.252 27.2139C101.721 26.2571 102.346 25.4959 103.127 24.9297C103.908 24.344 104.874 24.0508 106.026 24.0508ZM13.4434 43.8789H9.28418L8.49316 39.6611H4.62793L3.86621 43.8789H0L3.9541 24.3438H9.63574L13.4434 43.8789ZM25.1729 27.7705H19.1973V32.1631H24.2646V35.4141H19.1973V40.4814H25.3477V43.8789H15.1855V24.3438H25.1729V27.7705ZM35.7803 38.7236L38.1523 24.3438H43.541V43.8789H40.2021V27.2432L37.2734 43.8789H33.7295L30.6836 27.2432V43.8789H27.7842V24.3438H33.2607L35.7803 38.7236ZM57.4912 24.3438C60.01 24.3437 61.8754 25.1147 63.0859 26.6572C64.316 28.1802 64.9307 30.5822 64.9307 33.8623V33.9795C64.9306 34.9362 64.8525 35.9907 64.6963 37.1426C64.5401 38.2944 64.2176 39.3686 63.7295 40.3643C63.2609 41.3598 62.5679 42.1995 61.6504 42.8828C60.7523 43.5466 59.561 43.8789 58.0771 43.8789H52.9229V24.3438H57.4912ZM77.3965 27.7705H71.4219V32.1631H76.4883V35.4141H71.4219V40.4814H77.5723V43.8789H67.4092V24.3438H77.3965V27.7705ZM97.3066 43.8789H93.207V24.3438H97.3066V43.8789ZM122.069 35.2676L123.124 39.7783L122.714 32.9248V24.3438H125.818V43.8789H121.836L117.267 27.7705L117.589 34.6533V43.8789H114.484V24.3438H119.023L122.069 35.2676ZM139.203 32.3389L142.717 24.3438H146.642L142.746 32.0459L147.345 43.8789H143.098L140.315 36.1758L139.203 38.167V43.8789H135.19V24.3438H139.203V32.3389ZM153.033 43.8789H148.933V24.3438H153.033V43.8789ZM166 27.7705H162.72V43.8789H158.707V27.7705H155.515L155.516 24.3438H166V27.7705ZM56.8477 40.5107H57.8135C58.243 40.5107 58.6339 40.4619 58.9854 40.3643C59.3563 40.2471 59.669 39.9833 59.9229 39.5732C60.1961 39.1438 60.4014 38.519 60.5381 37.6992C60.6943 36.8597 60.7715 35.7074 60.7715 34.2432C60.7715 32.7594 60.6943 31.5876 60.5381 30.7285C60.4014 29.8499 60.206 29.1854 59.9521 28.7363C59.6984 28.2874 59.3855 28.0048 59.0146 27.8877C58.6437 27.751 58.243 27.6826 57.8135 27.6826H56.8477V40.5107ZM6.44336 28.0049L4.91992 36.7617H8.2002L6.67773 28.0049L6.56055 27.1846L6.44336 28.0049ZM33.9531 11.624C34.2685 11.624 34.5277 11.6771 34.7305 11.7822C34.9331 11.8798 35.0947 12.0149 35.2148 12.1875C35.3425 12.3527 35.436 12.5449 35.4961 12.7627C35.5636 12.9728 35.6126 13.1909 35.6426 13.416L34.8203 13.5615C34.8053 13.4491 34.7829 13.3253 34.7529 13.1904C34.7229 13.0477 34.674 12.9161 34.6064 12.7959C34.5464 12.6758 34.4635 12.5748 34.3584 12.4922C34.2533 12.4096 34.1141 12.3682 33.9414 12.3682C33.6412 12.3683 33.4083 12.5372 33.2432 12.875C33.0855 13.2054 33.0068 13.7611 33.0068 14.542C33.0068 15.2329 33.0706 15.7661 33.1982 16.1416C33.3334 16.5171 33.5777 16.7051 33.9307 16.7051C34.0882 16.705 34.2192 16.6668 34.3242 16.5918C34.4294 16.5167 34.5164 16.4232 34.584 16.3105C34.6515 16.1905 34.7004 16.0628 34.7305 15.9277C34.7605 15.7851 34.7828 15.6459 34.7979 15.5107L35.6201 15.6123C35.5976 15.7774 35.5603 15.9689 35.5078 16.1865C35.4553 16.3966 35.3648 16.5956 35.2373 16.7832C35.1172 16.9709 34.9515 17.1292 34.7412 17.2568C34.5385 17.3844 34.2758 17.4482 33.9531 17.4482C33.5927 17.4482 33.2879 17.3654 33.04 17.2002C32.8 17.0276 32.6084 16.8062 32.4658 16.5361C32.3231 16.2583 32.2222 15.946 32.1621 15.6006C32.1021 15.2477 32.0723 14.8949 32.0723 14.542C32.0723 14.1742 32.1053 13.8138 32.1729 13.4609C32.2404 13.108 32.3456 12.7957 32.4883 12.5254C32.6385 12.2551 32.8339 12.0373 33.0742 11.8721C33.3145 11.7069 33.6077 11.624 33.9531 11.624ZM39.2988 15.5674C39.2989 15.9201 39.3445 16.1902 39.4346 16.3779C39.5321 16.5656 39.712 16.6601 39.9746 16.6602C40.1247 16.6602 40.2491 16.6261 40.3467 16.5586C40.4518 16.4835 40.5346 16.389 40.5947 16.2764C40.6622 16.1563 40.707 16.0211 40.7295 15.8711C40.7595 15.7134 40.7744 15.5519 40.7744 15.3867V11.7598H41.6426V17.3135H40.9209L40.8877 16.6367C40.8502 16.7192 40.8012 16.8097 40.7412 16.9072C40.6887 17.0048 40.6173 17.0952 40.5273 17.1777C40.4372 17.2528 40.3279 17.3166 40.2002 17.3691C40.0725 17.4217 39.9185 17.4482 39.7383 17.4482C39.4382 17.4482 39.202 17.3918 39.0293 17.2793C38.8567 17.1592 38.7249 17.0166 38.6348 16.8516C38.5522 16.6788 38.4991 16.4941 38.4766 16.2988C38.4541 16.1038 38.4434 15.9271 38.4434 15.7695V11.7598H39.2988V15.5674ZM44.2451 11.624C44.538 11.624 44.7823 11.6696 44.9775 11.7598C45.1728 11.8499 45.3343 11.9625 45.4619 12.0977C45.5895 12.2328 45.6873 12.3827 45.7549 12.5479C45.8225 12.7056 45.8671 12.8563 45.8896 12.999L45.1357 13.2012C45.1132 13.0961 45.0792 12.9908 45.0342 12.8857C44.9967 12.7808 44.9435 12.6912 44.876 12.6162C44.8084 12.5336 44.7223 12.4689 44.6172 12.4238C44.5121 12.3713 44.3844 12.3457 44.2344 12.3457C44.0542 12.3457 43.8852 12.4021 43.7275 12.5146C43.5698 12.6273 43.4902 12.8036 43.4902 13.0439C43.4903 13.2692 43.5624 13.4573 43.7051 13.6074C43.8552 13.7499 44.0575 13.8852 44.3125 14.0127C44.5903 14.1628 44.8272 14.3053 45.0225 14.4404C45.2252 14.5681 45.3867 14.7073 45.5068 14.8574C45.6345 15.0001 45.7248 15.1541 45.7773 15.3193C45.8374 15.4845 45.8672 15.6726 45.8672 15.8828C45.8671 16.3707 45.7097 16.7535 45.3945 17.0312C45.0791 17.3091 44.6584 17.4482 44.1328 17.4482C43.7648 17.4482 43.4642 17.3877 43.2314 17.2676C43.0064 17.1475 42.8297 17.0091 42.7021 16.8516C42.5746 16.6865 42.4842 16.5173 42.4316 16.3447C42.3716 16.1721 42.3344 16.0328 42.3193 15.9277L43.1074 15.7246C43.1224 15.8297 43.149 15.9424 43.1865 16.0625C43.2241 16.1751 43.2762 16.2845 43.3438 16.3896C43.4187 16.4871 43.5168 16.5692 43.6367 16.6367C43.7644 16.7043 43.9226 16.7383 44.1104 16.7383C44.3881 16.7383 44.606 16.6671 44.7637 16.5244C44.9288 16.3743 45.0117 16.1829 45.0117 15.9502C45.0117 15.6799 44.9098 15.4472 44.707 15.252C44.5043 15.0567 44.1888 14.8496 43.7607 14.6318C43.6333 14.5644 43.5021 14.4896 43.3672 14.4072C43.2396 14.3172 43.1227 14.2119 43.0176 14.0918C42.9125 13.9717 42.8264 13.8324 42.7588 13.6748C42.6912 13.5097 42.6573 13.3182 42.6572 13.1006C42.6572 12.9429 42.6838 12.7772 42.7363 12.6045C42.7963 12.432 42.8859 12.2744 43.0059 12.1318C43.1335 11.9816 43.2992 11.8606 43.502 11.7705C43.7046 11.673 43.9524 11.6241 44.2451 11.624ZM54.1279 11.624C54.4055 11.6241 54.6418 11.6772 54.8369 11.7822C55.0397 11.8799 55.2086 12.0115 55.3438 12.1768C55.4789 12.342 55.5883 12.5332 55.6709 12.751C55.7535 12.9612 55.813 13.1791 55.8506 13.4043C55.8956 13.6219 55.9264 13.8358 55.9414 14.0459C55.9564 14.2561 55.9639 14.4442 55.9639 14.6094V14.6318H53.1924V14.7334C53.1924 14.9136 53.1966 15.1207 53.2041 15.3535C53.2191 15.5861 53.2564 15.8042 53.3164 16.0068C53.384 16.2094 53.4818 16.3818 53.6094 16.5244C53.737 16.6671 53.9176 16.7383 54.1504 16.7383C54.3155 16.7382 54.4506 16.6968 54.5557 16.6143C54.6682 16.5242 54.7586 16.4231 54.8262 16.3105C54.8937 16.1905 54.9459 16.0703 54.9834 15.9502C55.0209 15.83 55.0517 15.7323 55.0742 15.6572L55.8057 15.8486C55.7606 16.0589 55.6936 16.2618 55.6035 16.457C55.5134 16.6447 55.4007 16.8137 55.2656 16.9639C55.1305 17.1065 54.9689 17.2234 54.7812 17.3135C54.5935 17.4036 54.379 17.4482 54.1387 17.4482H54.1162C53.5081 17.4557 53.0426 17.2155 52.7197 16.7275C52.3968 16.2319 52.2386 15.499 52.2461 14.5303C52.2461 14.17 52.2801 13.817 52.3477 13.4717C52.4077 13.1263 52.5129 12.8182 52.6631 12.5479C52.8132 12.2702 53.0047 12.0489 53.2373 11.8838C53.4776 11.7111 53.775 11.624 54.1279 11.624ZM6.86426 17.3135H5.90723L5.42285 15.1729H3.53027L3.05664 17.3135H2.14453L3.92383 9.7998H5.15234L6.86426 17.3135ZM9.3252 11.624C9.62555 11.624 9.86244 11.6846 10.0352 11.8047C10.2078 11.9173 10.3396 12.0598 10.4297 12.2324C10.5198 12.3976 10.5761 12.5782 10.5986 12.7734C10.6212 12.9686 10.6318 13.1451 10.6318 13.3027V17.3135H9.76465V13.5059C9.76465 13.0704 9.70082 12.7814 9.57324 12.6387C9.45316 12.4886 9.29568 12.4132 9.10059 12.4131C8.9579 12.4131 8.83365 12.4471 8.72852 12.5146C8.63095 12.5822 8.54803 12.6758 8.48047 12.7959C8.41293 12.9085 8.36403 13.0436 8.33398 13.2012C8.30397 13.3513 8.28908 13.513 8.28906 13.6855V17.3135H7.43359V11.7598H8.16504L8.17676 12.458C8.2218 12.3604 8.27394 12.2626 8.33398 12.165C8.40157 12.0599 8.48117 11.9696 8.57129 11.8945C8.66123 11.8122 8.76592 11.7481 8.88574 11.7031C9.01332 11.6506 9.16013 11.6241 9.3252 11.624ZM17.4551 10.5654H15.0557V12.9873H16.9932V13.7422H15.0557V16.5586H17.5225V17.3135H14.1211V9.7998H17.4551V10.5654ZM19.5869 11.8496L20.0029 13.3369L20.3408 12.165L21.0508 9.7998H21.9404L20.4092 14.5195V17.3135H19.4287V14.5195L17.9189 9.7998H18.9443L19.5869 11.8496ZM27.916 10.5654H25.5166V12.9873H27.4541V13.7422H25.5166V16.5586H27.9834V17.3135H24.582V9.7998H27.916V10.5654ZM29.8223 13.0322L30.0811 13.7988L30.2725 13.1562L30.7344 11.7598H31.5342L30.5771 14.2939L31.7256 17.3135H30.8252L30.25 15.7471L29.9805 14.9814L29.7549 15.6348L29.1572 17.3135H28.3242L29.4961 14.373L28.459 11.7598H29.3828L29.8223 13.0322ZM37.3193 17.3135H36.4297V9.7998H37.3193V17.3135ZM47.6943 17.3135H46.8154V11.7598H47.6943V17.3135ZM50.0127 15.5107L50.1709 16.4795L50.2949 15.6572L51.0039 11.7598H51.793L50.6885 17.3135H49.6074L48.3906 11.7598H49.2695L50.0127 15.5107ZM4.30762 11.501L3.66504 14.4404H5.29883L4.66797 11.501L4.4873 10.5654L4.30762 11.501ZM54.1055 12.3682C53.9029 12.3682 53.7412 12.428 53.6211 12.5479C53.501 12.6605 53.4065 12.7997 53.3389 12.9648C53.2788 13.13 53.2374 13.3065 53.2148 13.4941C53.1923 13.6819 53.1816 13.8476 53.1816 13.9902H55.0059C55.0059 13.8251 54.9952 13.6485 54.9727 13.4609C54.9501 13.2733 54.9044 13.0968 54.8369 12.9316C54.7768 12.7664 54.6866 12.6305 54.5664 12.5254C54.4464 12.4206 54.2928 12.3682 54.1055 12.3682ZM47.7168 10.7568H46.793V9.7998H47.7168V10.7568Z" fill="white"/>
</svg>
