<svg width="15" height="15" viewBox="0 0 15 15" fill="none" xmlns="http://www.w3.org/2000/svg">
<path d="M13.2198 3.79065C13.0789 3.2639 12.6637 2.84862 12.1369 2.70775C11.1814 2.45172 7.35083 2.45172 7.35083 2.45172C7.35083 2.45172 3.52025 2.45172 2.56475 2.70775C2.038 2.84862 1.62273 3.2639 1.48186 3.79065C1.22583 4.74615 1.22583 7.35172 1.22583 7.35172C1.22583 7.35172 1.22583 9.9573 1.48186 10.9128C1.62273 11.4395 2.038 11.8548 2.56475 11.9957C3.52025 12.2517 7.35083 12.2517 7.35083 12.2517C7.35083 12.2517 11.1814 12.2517 12.1369 11.9957C12.6643 11.8548 13.0789 11.4395 13.2198 10.9128C13.4758 9.9573 13.4758 7.35172 13.4758 7.35172C13.4758 7.35172 13.4758 4.74615 13.2198 3.79065ZM6.12583 9.47342V5.23002L9.80083 7.35172L6.12583 9.47342Z" fill="black"/>
</svg>
