<svg xmlns="http://www.w3.org/2000/svg" viewBox="0 0 24 24" fill="none" stroke="currentColor" stroke-width="1.5" stroke-linecap="round" stroke-linejoin="round">
  <!-- Background rectangle -->
  <rect x="2" y="2" width="20" height="20" rx="2" ry="2" fill="none" stroke="currentColor"/>
  
  <!-- Two cards with gradient-style borders -->
  <rect x="4" y="6" width="7" height="8" rx="1" ry="1" fill="none" stroke="url(#gradient1)" stroke-width="2"/>
  <rect x="13" y="6" width="7" height="8" rx="1" ry="1" fill="none" stroke="url(#gradient2)" stroke-width="2"/>
  
  <!-- Content lines inside cards -->
  <line x1="5.5" y1="8" x2="9.5" y2="8" stroke="currentColor" stroke-width="1"/>
  <line x1="5.5" y1="9.5" x2="8.5" y2="9.5" stroke="currentColor" stroke-width="0.8" opacity="0.7"/>
  <line x1="5.5" y1="11" x2="9" y2="11" stroke="currentColor" stroke-width="0.8" opacity="0.7"/>
  <rect x="5.5" y="12" width="3" height="1" rx="0.5" ry="0.5" fill="currentColor" opacity="0.6"/>
  
  <line x1="14.5" y1="8" x2="18.5" y2="8" stroke="currentColor" stroke-width="1"/>
  <line x1="14.5" y1="9.5" x2="17.5" y2="9.5" stroke="currentColor" stroke-width="0.8" opacity="0.7"/>
  <line x1="14.5" y1="11" x2="18" y2="11" stroke="currentColor" stroke-width="0.8" opacity="0.7"/>
  <rect x="14.5" y="12" width="3" height="1" rx="0.5" ry="0.5" fill="currentColor" opacity="0.6"/>
  
  <!-- Main heading line -->
  <line x1="6" y1="4" x2="18" y2="4" stroke="currentColor" stroke-width="1.5"/>
  
  <!-- Gradient definitions -->
  <defs>
    <linearGradient id="gradient1" x1="0%" y1="0%" x2="0%" y2="100%">
      <stop offset="0%" style="stop-color:#32FFFF;stop-opacity:1" />
      <stop offset="50%" style="stop-color:#B4FF00;stop-opacity:1" />
      <stop offset="100%" style="stop-color:#FFD500;stop-opacity:1" />
    </linearGradient>
    <linearGradient id="gradient2" x1="0%" y1="0%" x2="0%" y2="100%">
      <stop offset="0%" style="stop-color:#32FFFF;stop-opacity:1" />
      <stop offset="50%" style="stop-color:#B4FF00;stop-opacity:1" />
      <stop offset="100%" style="stop-color:#FFD500;stop-opacity:1" />
    </linearGradient>
  </defs>
</svg>
