<svg xmlns="http://www.w3.org/2000/svg" viewBox="0 0 24 24" fill="none" stroke="currentColor" stroke-width="2" stroke-linecap="round" stroke-linejoin="round">
  <!-- Feature cards icon with image, text and button -->
  
  <!-- Card 1 -->
  <rect x="2" y="3" width="6" height="8" rx="1" fill="none"/>
  <rect x="2" y="3" width="6" height="3" rx="1" fill="currentColor" opacity="0.2"/>
  <line x1="3" y1="7.5" x2="7" y2="7.5"/>
  <line x1="3" y1="8.5" x2="6" y2="8.5"/>
  <rect x="3" y="9.5" width="2" height="1" rx="0.5" fill="currentColor"/>
  
  <!-- Card 2 -->
  <rect x="9" y="3" width="6" height="8" rx="1" fill="none"/>
  <rect x="9" y="3" width="6" height="3" rx="1" fill="currentColor" opacity="0.2"/>
  <line x1="10" y1="7.5" x2="14" y2="7.5"/>
  <line x1="10" y1="8.5" x2="13" y2="8.5"/>
  <rect x="10" y="9.5" width="2" height="1" rx="0.5" fill="currentColor"/>
  
  <!-- Card 3 -->
  <rect x="16" y="3" width="6" height="8" rx="1" fill="none"/>
  <rect x="16" y="3" width="6" height="3" rx="1" fill="currentColor" opacity="0.2"/>
  <line x1="17" y1="7.5" x2="21" y2="7.5"/>
  <line x1="17" y1="8.5" x2="20" y2="8.5"/>
  <rect x="17" y="9.5" width="2" height="1" rx="0.5" fill="currentColor"/>
  
  <!-- Featured indicator -->
  <circle cx="5" cy="15" r="3" fill="none"/>
  <path d="m4 15 1 1 2-2" fill="none"/>
  
  <!-- Stars for "feature" emphasis -->
  <polygon points="12,14 12.5,15.5 14,15.5 12.75,16.5 13.25,18 12,17 10.75,18 11.25,16.5 10,15.5 11.5,15.5" fill="currentColor" opacity="0.6"/>
  
  <!-- Feature highlight line -->
  <line x1="16" y1="15" x2="22" y2="15" stroke-width="3" opacity="0.4"/>
</svg>